<?xml version="1.0" encoding="UTF-8"?>
<!-- Generator: Adobe Illustrator 24.0.0, SVG Export Plug-In . SVG Version: 6.00 Build 0)  -->
<svg version="1.1" id="Layer_1" xmlns="http://www.w3.org/2000/svg" xmlns:xlink="http://www.w3.org/1999/xlink" x="0px" y="0px" viewBox="0 0 503.4 204.38" style="enable-background:new 0 0 503.4 204.38;" xml:space="preserve">
<style type="text/css">
	.st0{fill-rule:evenodd;clip-rule:evenodd;}
	.st1{fill-rule:evenodd;clip-rule:evenodd;fill:#007336;}
	.st2{fill-rule:evenodd;clip-rule:evenodd;fill:#FEFEFE;}
</style>
<g>
	<path class="st0" d="M467.88,25.76V5.54h-7.56V2.83h18.18v2.71h-7.59v20.23H467.88L467.88,25.76z M481.51,25.76V2.83h4.57   l5.42,16.24c0.5,1.51,0.87,2.64,1.1,3.4c0.26-0.83,0.67-2.06,1.22-3.68l5.49-15.95h4.08v22.93h-2.93V6.57l-6.66,19.19h-2.74   l-6.63-19.52v19.52H481.51z"/>
	<path class="st1" d="M119.48,17.52c89.5,19.49,162.37,17.25,248.78-1.73c156.66-34.41,153.29,211.61,0,185.5   c-85.07-14.49-160.89-19.39-248.78,0C-32.79,234.88-39.48-17.1,119.48,17.52z"/>
	<path class="st2" d="M423.82,62.37l-12.49,21.14h-23.99c-3.1,0-5.22,0.22-6.36,0.68c-1.14,0.44-2.09,1.29-2.82,2.53l-1.57,2.55   c-0.31,0.49-0.54,0.9-0.71,1.29c-0.17,0.39-0.26,0.7-0.3,1c-0.2,1.65,2.88,3.5,9.25,5.49c2.5,0.8,4.46,1.43,5.89,1.92   c7,2.4,11.63,4.71,13.95,6.87c2.29,2.14,3.25,4.81,2.87,7.99c-0.14,1.19-0.52,2.62-1.14,4.28c-0.63,1.65-1.4,3.3-2.4,4.91   l-11.56,20.14c-3.4,5.88-7.49,9.94-12.19,12.15c-4.73,2.21-13.25,3.3-25.55,3.3h-46.6l12.56-21.14h31.78   c5.65,0,9.4-0.44,11.27-1.29c1.84-0.85,3.39-2.45,4.66-4.83l2.91-5.13c0.44-0.7,0.77-1.41,1.03-2.06c0.26-0.66,0.4-1.24,0.46-1.7   c0.3-2.48-3.11-4.93-10.25-7.41c-1.72-0.56-3.03-1.02-4-1.36c-7.98-2.84-12.87-5.1-14.69-6.75c-1.82-1.65-2.57-3.77-2.27-6.34   c0.14-1.19,0.5-2.53,1.07-4.06c0.58-1.51,1.32-3.04,2.18-4.54l11.07-18.95c2.29-3.94,5.26-6.68,8.93-8.29   c3.64-1.58,9.28-2.38,16.84-2.38H423.82z"/>
	<polygon class="st2" points="355.75,62.37 298.89,158.61 264.11,158.61 320.97,62.37  "/>
	<path class="st2" d="M265.59,144.59c-3.1,5.27-6.61,8.92-10.59,10.96c-3.98,2.04-9.89,3.06-17.76,3.06h-64.7l56.86-96.23h64.24   c4.44,0,7.8,0.95,10.12,2.84c2.32,1.89,3.26,4.52,2.87,7.85c-0.1,0.85-0.34,1.77-0.73,2.77c-0.4,1-0.95,2.07-1.67,3.21   l-14.93,25.34c-1.63,2.84-3.48,4.83-5.55,5.93c-2.07,1.12-4.94,1.68-8.59,1.68h-0.73c1.63,1.09,2.8,2.33,3.46,3.74   c0.66,1.41,0.9,3.01,0.68,4.81c-0.1,0.85-0.37,1.8-0.8,2.87c-0.41,1.07-0.96,2.16-1.63,3.26L265.59,144.59L265.59,144.59z    M236.3,137.47l6.08-10.4c0.17-0.3,0.35-0.61,0.46-0.92c0.12-0.34,0.18-0.68,0.22-1c0.15-1.24-0.23-2.31-1.13-3.18   c-0.9-0.87-2.11-1.31-3.65-1.31h-8.57l-10.02,16.82H236.3L236.3,137.47z M242.52,98.4h16.79l5.16-9.18   c0.19-0.29,0.35-0.58,0.46-0.9c0.11-0.32,0.18-0.63,0.21-0.95c0.16-1.34-0.21-2.43-1.09-3.28c-0.88-0.85-2.09-1.29-3.6-1.29h-8.8   L242.52,98.4z"/>
	<path class="st2" d="M165.07,83.74l-23,23.95h16.86l7.82-19.2c0.01-0.05,0.04-0.15,0.11-0.29c0.22-0.56,0.35-1.04,0.4-1.48   c0.11-0.95-0.17-1.73-0.83-2.31c-0.28-0.26-0.63-0.47-1.02-0.61l0.3-0.87L165.07,83.74L165.07,83.74z M120.08,130.59l-26.82,27.94   H53.98l95.44-95.81l23.26-0.27l0.02-0.07h6.07l3.11-0.04l-0.03,0.04h15.28c3.45,0,6.07,0.9,7.9,2.67c1.83,1.77,2.58,4.15,2.22,7.14   c-0.08,0.68-0.21,1.36-0.42,2.06c-0.21,0.7-0.51,1.48-0.83,2.28l-34.5,82.07h-33.31l11.42-28.02H120.08z"/>
</g>
</svg>